<svg height="281" width="330" viewBox="0 0 330 281" xmlns="http://www.w3.org/2000/svg" version="1.2"><style></style><path d="m183.4 89.1c7.9 0 15.7 0 23.6 0.1 4-0.1 8.2 0 11.9 1.6 2.4 1.1 4.5 3 5.4 5.5 1 2.3 0.9 4.8 0.9 7.2 0 4.2 0 8.4-0.1 12.6-0.1 3.6-0.8 7.4-3.2 10.2-0.9 1.3-2.3 2.2-3.7 2.8 1.9 0.4 3.2 2 4.3 3.5 1.7 2.6 2.6 5.8 2.6 9q0 17.7 0 35.4c-6.4 0-12.5 0-18.9 0q0-17.9 0-35.7c0-1.2-0.2-2.5-1.1-3.3-0.9-0.7-2.1-0.6-3.1-0.3q-0.1 19.6-0.1 39.3-9.3-0.1-18.6-0.1 0-43.9 0.1-87.8zm-137 2.2c2-2.3 6-3.2 10.1-3.6 4.9-0.4 11.5-0.3 16.4 0.2 2 0.2 3.9 0.5 5.1 1 2.6 1 4.4 2.3 5.5 5.3 1.6 3.8 1.5 9.2 1.5 13.2 0 3.4 0 7.3 0 10.4h-18.9c0-2.8 0-6.9 0-9.8-0.1-1.6-0.2-3.2-1-4.6-0.3-0.5-0.9-1-1.5-0.7-0.7 0.5-1 1.4-1.3 2.3-0.5 2.3-0.4 4.7-0.4 7.1 0 2.3 0 3.3 0.5 4.4 0.6 1.4 1.8 2.8 4.4 4.4 2.8 1.7 6.1 3 8.9 4.8 3.2 1.9 6.3 4 7.9 7.4 0.9 2 1.4 5.5 1.3 7.7 0 8 0 13.8 0 21.8 0 3.4-1 8-3.6 10.4-1.5 1.4-3.9 2.4-6 2.9-4 0.9-17.6 1.1-21.7 0.2-2.1-0.4-3.9-1.2-5.7-2.2-4.2-2.4-4.8-9.6-4.8-14.4 0-7.2 0-11.8 0-19 6.2 0 12.6 0 18.8 0 0 5.4 0 9.9 0 15.3 0 1.5 0.2 3.9 1.1 4.7 0.5 0.5 1.4 0.5 1.9 0 1-1.3 1.1-3.1 1.1-4.6 0-4.7 0-7.7 0-12.4 0.1-1.8-0.8-3.4-1.9-4-2.1-1.2-4.3-2.3-6.4-3.6-3-1.7-7.6-4.3-10.2-6.5-1.7-1.5-3.1-4-3.6-6.2-1-4-0.8-10-0.8-13.3 0-3-0.1-4.7 0-7.7 0.1-3.8 1-8.4 3.3-10.9zm171.9 91.2h25v34.1l0.1-0.1 2.4-16 4.1-18h24.7l-10.7 30.9c-1.6 0.5-3.5 1.2-5 1.7l3.7 2.1c-0.1 0.3-0.3 1-0.4 1.3-2.2 1.2-4.2 2.2-6.3 3.3 2 1.8 3.9 3.5 5.8 5.9-1.3 0.9-4.4 1.7-6.8 2.2-1.9 0.3-3.5 1.1-5.2 1.7l8 3.4c-1.5 1.7-4.1 3.7-6.1 5.3l8.9 1.4c-2.6 1.8-6 3.7-8.9 5.6 2.9 1 5.7 2.1 8.7 3.1-1.2 1-2.8 1.8-4.2 2.5-0.7 0.5-1.1 0.9-1.7 1.6-0.7 0.7-0.5 0.6 0.2 0.9l10.5 2.3c-1.8 1-4 2-6.1 3.5-1.9 1.4-2.2 1.5 0 1.9 2.8 0.5 5.2 0.9 7.8 1.1-1.4 0.3-1.8 0.6-2.5 1.3-0.5 0.6-1.3 1.3-2.2 1.9-1.1 1-0.2 1.7 1 1.8 2.7 0 5.6 0.1 8.3 0.1-0.6 2-1.5 3.5-2.4 5.1 2.3 0.3 3.6 0.1 5.8 0l1.6 5.5 0.3 0.9v0.2l-24.7-0.1-5.8-28.2-2.8-19.5-0.2-0.1v47.8h-25zm-91.4 79h-5.9v19.3l-24.8-0.1 0.1-81c0-5.3 1.2-9.3 2.8-11.7 2.2-3.4 6.4-4.8 11.2-5.4 5.2-0.7 22.5-0.7 27.5 0 4.5 0.7 8.8 2.2 11 5.6 1.5 2.4 3.1 6.3 3.1 11.6l-0.1 81h-24.9zm-5.9-17h5.9v-41.8c0-1.9-1.1-3.5-3-3.5-1.8-0.1-2.8 1.6-2.8 3.5zm57-67.5l-18.7-0.1v-17.1h-4.5v17.1h-18.6q0-36.2 0-72.5c0.1-4.7 0.9-8.3 2.1-10.4 1.7-3.1 5-4.4 8.6-4.9 3.9-0.6 16.9-0.6 20.7 0 3.4 0.6 6.6 2 8.2 5 1.2 2.1 2.3 5.6 2.3 10.4q-0.1 36.2-0.1 72.5zm-23.1-32.5h4.5q0-18.6 0-37.1c0-1.7-0.9-3.2-2.2-3.2 0 0-2.3 0.2-2.3 3.2q0 18.5 0 37.1zm-65-55.5l18.7 0.1-0.1 26.9h4.3l0.1-26.9h18.9l-0.1 87.8h-18.9v-45.9h-4.3v45.9l-18.7-0.1zm67 93.4l24.1 0.1 6.6 30.2 3 19.7 0.1-49.9h21.9l-0.1 98.4h-25.4l-6.4-28.4-2.9-21-0.1 49.4-20.9-0.1zm-113.7-0.1c16.2 0 32.3 0 48.5 0.1q0 8.3 0 16.7c-3.8 0-7.9 0-11.7 0q-0.1 40.8-0.1 81.7-12.6 0-25.1-0.1 0-40.8 0.1-81.6c-4 0-7.7 0-11.7 0q0-8.4 0-16.8zm205.7-62.2l1.9-15.1 3-15.7h18.8l-10.9 36.8 12.3 51h-18.6l-4.2-25.4-2.3-18.2-0.1 43.6h-18.8l0.1-87.9 18.8 0.1zm-47-15.9q0 8.1 0 16.3c1-0.1 2.2 0 3.1-0.6 0.9-0.6 1.1-1.8 1.2-2.8q0-4.5 0-9c0-1.1-0.3-2.4-1.2-3.2-0.9-0.7-2-0.8-3.1-0.7z" fill-rule="evenodd"></path><path d="m51.7 5.9q3.2 0 3.2 2.2 0 1.2-0.6 1.7-0.5 0.5-2.3 3.6-1.7 3.1-3.9 7.9-2.1 4.7-2.8 8.1-0.1 0.4-0.1 1.1 0 2.3 1.2 2.3 1.3 0 3-1.1 1.7-1.2 3-2.6 1.4-1.3 2.6-2.8 1.3-1.4 1.6-1.6 0.2-0.2 0.7-0.2 0.8 0 1 1.2 0.1 1.2 0.1 2.5 0 0.1 0 0.3 0.8 0.2 0.8 0.8v0.6q0 1.1 0.8 1.8 0.8 0.8 1.4 0.8 5 0 8.9-1.5 3.8-1.5 3.8-3 0-0.7-1.4-1.2-1.3-0.6-4.7-1.3-3.3-0.8-4.8-1.2-1.5-0.5-2.3-0.9-0.9-0.3-1.8-1-2-1.4-2-4.1 0-2.7 2-5.4 2.1-2.7 5.1-4.6 3.1-1.9 6.6-3.4 6.9-2.9 11.6-2.9 4.6 0.1 5.7 2.1 0.3 0.7 0.3 1.5v0.3q0 2.2-1 3.5-0.9 1.2-2.9 2.2-2 1-3.2 1-1.2 0-1.5-0.1-0.3-0.2-0.5-0.5-0.2-0.3-0.6-0.4-0.3-0.1-0.3-0.6 0.1-0.5 0.5-1 0.4-0.5 0.6-1.1-2.8 0.1-5.8 1.3-3 1.1-5.2 2.5-2.1 1.4-3.5 2.7-1.4 1.3-1.4 1.9 0 0.6 1.9 1 8.6 1.7 11.3 2.9 2.7 1.3 3.8 2.9 1 1.6 1 2.8 0 2.7-2.1 5.1-2.2 2.4-5.3 3.8-6.7 3.3-11.7 3.3-4.9 0-6.9-1.5-1.4-1.2-1.7-2.7-0.5 0.4-1 0.8-4.1 3.3-7.5 3.3-3.3 0-4.9-2-1.6-2.1-1.6-4.5 0-2.5 0.9-4.4-3.5 4.5-8 7.6-4.5 3.1-7.3 3.1-2.8 0-4.6-1.7-2.3-2.1-2.3-5.8 0-3.8 1.7-7.6 1.7-3.9 4.4-7 2.8-3.1 6.1-5.7 6.9-5.4 12.7-5.4 2.3 0 3.7 0.7 1.4 0.8 1.8 1.9 1-1.5 1.6-1.9 0.7-0.4 2.1-0.4zm-5.5 4.6q-7.1 0-14.8 7.9-2.7 2.9-5 6.8-2.2 4-2.2 5.4 0 1.5 0.8 1.5 1.2 0 6.5-4.6 5.3-4.6 7.1-6.8 1.9-2.4 7.6-10.2zm62.1 18.8l-0.1 0.7q0 1 0.8 1.8 0.8 0.7 1.5 0.7 5 0 8.8-1.5 3.9-1.5 3.9-3 0-0.7-1.4-1.2-1.4-0.5-4.7-1.3-3.3-0.8-4.8-1.2-1.5-0.4-2.4-0.8-0.9-0.4-1.8-1.1-1.9-1.3-1.9-4 0-2.8 2-5.5 2-2.7 5.1-4.6 3-1.9 6.5-3.3 6.9-2.9 11.6-2.9 4.6 0 5.7 2 0.4 0.7 0.4 1.6v0.3q0 2.2-1 3.4-0.9 1.3-3 2.3-2 1-3.2 1-1.1 0-1.5-0.2-0.3-0.2-0.5-0.4-0.2-0.3-0.5-0.4-0.3-0.2-0.3-0.7 0-0.5 0.4-1 0.4-0.5 0.6-1.1-2.7 0.1-5.7 1.3-3 1.1-5.2 2.5-2.1 1.5-3.6 2.7-1.4 1.3-1.4 2 0 0.5 1.9 0.9 8.7 1.7 11.4 3 2.7 1.2 3.7 2.8 1 1.6 1 2.9 0 2.7-2.1 5-2.1 2.4-5.2 3.9-6.7 3.3-11.7 3.3-5 0-6.9-1.5-1.9-1.6-1.9-3.7 0-2 1.1-3.8 1.1-1.8 2.7-1.8 1.7 0 1.7 0.9zm55.4-22.8q0 2.8-2.2 4.9-2.2 2.1-5.1 2.1-0.9-0.1-1.2-0.5-0.3-0.4-0.3-1.1 0-0.7 0.2-1.4-1.5 0.5-3.3 1.5-1.9 1.1-4.5 3.1-2.7 2-2.7 3 0 0.4 1 0.4 1 0 3-0.7 2-0.7 2.8-0.7 0.9 0 1.1 0.1 0.6 0.3 1.2 1.3 0.6 0.9 0.6 1.5 0 0.6-1.1 1.5-1.1 0.9-2.4 1.4-1.4 0.5-1.9 0.7-8.8 4.9-8.8 6.7 0 3.3 5.6 3.3 3.5 0 7.1-2.2 3-2 5.5-3.9 2.4-2 3-2.5 0.7-0.4 1-0.4 0.7 0 1 1 1.9-1.5 4.9-2.6-1.6-0.8-2.1-1.8-0.4-1.2-0.4-3.6 0-2.4 2.2-5.1 2.3-2.8 5.6-4.5 7.3-4 13.1-4 1.4 0 2.8 0.7 1.4 0.7 1.4 1.9 0 2.7-2.3 4.8-2.2 2.1-5 2.1-0.9 0-1.2-0.4-0.3-0.5-0.3-1.2 0-0.7 0.2-1.4-1.5 0.5-3.4 1.6-1.8 1-4.5 3-2.6 2.1-2.6 3.1 0 0.3 0.9 0.3 1 0 3.1-0.7 2-0.7 2.8-0.7 0.8 0 1.1 0.1 0.5 0.3 1.1 1.3 0.7 1 0.7 1.6 0 0.5-1.1 1.4-1.1 0.9-2.5 1.4-1.4 0.5-1.8 0.7-8.8 4.9-8.8 6.8 0 3.2 5.5 3.2 3.6 0 7.2-2.2 3-1.9 5.4-3.9 2.5-2 3.1-2.4 0.7-0.5 1-0.5 0.2 0 0.3 0.1 1.7-2.8 4.1-6.8 3.8-6.4 4.6-7.7 1.5-2.8 2.5-4 1.9-2.4 6.4-2.4 1 0 1 1.3 0 1.9-3.7 7.3l-1.7 2.6q7.2-7.9 12.2-10.1 2.4-1 4.3-1 2 0 3.1 1 1.1 1.1 1.1 2.4 0 1.2-0.8 3-0.9 1.8-1.8 3.2-0.9 1.3-2.4 3.5-1.4 2.1-1.6 2.3-0.1 0.2-0.6 1-0.5 0.8-0.8 1.2-0.2 0.3-0.8 1.3-0.6 0.9-1 1.5-0.3 0.7-0.8 1.6-0.5 0.9-0.9 1.6-0.3 0.6-0.6 1.4-0.6 1.5-0.6 2.4 0 1.9 2.5 1.9 1.3 0 3.3-1.4 2.1-1.3 3.7-2.9 4.3-4.3 4.9-4.3 1.1 0 1.1 3.2 0 3.1-2 4.2-5.9 5.4-9.2 6.6-1.8 0.6-4 0.6-2.2-0.1-4.4-2-2.1-1.8-2.1-4.5 0-2.7 1.4-6.1 1.4-3.4 2.9-5.9 1.5-2.4 3.6-5.6 2.2-3.3 2.3-4v-0.1q-1.4 0.1-6.9 5.4-5.4 5.3-8.9 9.2-3.6 3.9-8.5 10.4-1.4 1.8-2.3 1.8-0.8 0-2.3-0.5-1.5-0.6-1.8-0.9-0.4-0.2-0.4-0.7 0-0.1 0.1-0.3-6.4 3.9-12.3 3.9-4.2 0-6.7-1.1-4-1.8-4.6-5.2-8.3 6.3-15.7 6.3-4.3 0-6.8-1.2-4.7-2.1-4.7-6.5 0-5.7 8-8.7-1.6-0.7-2-1.8-0.5-1.1-0.5-3.5 0-2.5 2.3-5.2 2.3-2.7 5.5-4.5 7.4-3.9 13.1-3.9 1.4 0 2.8 0.7 1.4 0.6 1.4 1.8zm104.8-0.4q1.2 0 2.5 1.1 1.4 1.1 1.4 3.5-0.1 2.2-1.7 6-1.6 3.6-4.4 7.4-2.9 3.8-6.3 7.2-3.4 3.3-7.3 5.5-3.9 2.1-7.1 2.1-3.3 0-5.2-2-1.9-2-1.9-5.6 0-3.6 1.7-8 1.8-4.4 4.6-7.7 2.8-3.4 6.1-6 6.8-5.5 11.9-5.5 2.3 0 3.4 1.1 0.5 0.4 0.5 0.7v0.3q0.5-0.1 1.8-0.1zm-4.2 5.5h-0.3q-1.5 0-1.5-2.1-3 1-6.3 3.5-3.4 2.5-6 5.9-5.3 6.8-5.4 11.5 0 2.3 1.7 2.3 1.7 0 5.1-2.2 3.3-2.2 6.6-6.4 3.4-4.2 5-7.2 1.7-3.1 1.7-4.2 0-1.1-0.6-1.1zm28.8 19.8q0 1.8 2.5 1.8 1.4 0 3.4-1.3 2-1.3 3.6-2.9 4.4-4.3 5-4.3 1 0 1 3.1 0 3.2-1.9 4.3-6 5.4-9.2 6.6-1.9 0.6-4.1 0.5-2.2 0-4.3-1.9-2.2-1.9-2.2-4.5 0-2.7 1.4-6.1 1.4-3.5 2.9-5.9 1.5-2.4 3.7-5.6 2.1-3.3 2.3-4.1h-0.1q-1.4 0.1-6.8 5.4-5.5 5.2-9 9.2-3.6 3.9-8.5 10.4-1.4 1.8-2.2 1.8-0.9 0-2.4-0.6-1.5-0.5-1.8-0.8-0.3-0.2-0.3-0.7 0-0.5 0.3-1.3 0.3-0.7 0.5-1.2 0.3-0.5 0.9-1.5 0.7-1 2.5-4.2 1.9-3.2 5.7-9.6 3.8-6.4 4.6-7.8 1.6-2.7 2.6-3.9 1.9-2.4 6.3-2.4 1 0 1 1.2 0 2-3.6 7.4l-1.8 2.6q7.2-8 12.2-10.1 2.4-1 4.3-1 2 0 3.1 1 1.2 1.1 1.2 2.4 0 1.2-0.9 3-0.9 1.7-1.8 3.2-0.9 1.3-2.3 3.5-1.5 2.1-1.6 2.3-0.1 0.2-0.7 1-0.5 0.8-0.7 1.1-0.3 0.4-0.9 1.4-0.6 0.9-0.9 1.5-0.4 0.6-0.9 1.6-0.5 0.9-0.8 1.5-0.3 0.7-0.7 1.5-0.5 1.5-0.6 2.4z" fill-rule="evenodd"></path></svg>